<svg width="13" height="12" viewBox="0 0 13 12" fill="none" xmlns="http://www.w3.org/2000/svg">
<g clip-path="url(#clip0_4782_76591)">
<path d="M11.5098 5.5414V6.0014C11.5092 7.07961 11.16 8.12873 10.5144 8.99231C9.86885 9.85588 8.96141 10.4876 7.92744 10.7933C6.89348 11.0991 5.7884 11.0623 4.777 10.6887C3.76561 10.315 2.90209 9.62445 2.31525 8.71993C1.7284 7.81541 1.44966 6.74543 1.5206 5.66955C1.59155 4.59368 2.00837 3.56956 2.70891 2.74993C3.40944 1.93031 4.35616 1.35909 5.40786 1.12147C6.45956 0.883852 7.5599 0.992566 8.54477 1.4314M11.5098 2.0014L6.50977 7.0064L5.00977 5.5064" stroke="white" stroke-width="1.3" stroke-linecap="round" stroke-linejoin="round"/>
</g>
<defs>
<clipPath id="clip0_4782_76591">
<rect width="12" height="12" fill="white" transform="translate(0.509766 0.000488281)"/>
</clipPath>
</defs>
</svg>
